<?xml version="1.0" encoding="iso-8859-1"?>
<!-- Generator: Adobe Illustrator 19.0.0, SVG Export Plug-In . SVG Version: 6.00 Build 0)  -->
<svg xmlns="http://www.w3.org/2000/svg" xmlns:xlink="http://www.w3.org/1999/xlink" version="1.1" id="Layer_1" x="0px" y="0px" viewBox="0 0 512 512" style="enable-background:new 0 0 512 512;" xml:space="preserve" width="512px" height="512px">
<g>
	<g>
		<polygon points="365.901,84.418 182.916,84.418 239.809,167.842 422.796,167.842   " fill="#FFDA44"/>
	</g>
</g>
<g>
	<g>
		<path d="M246.981,198.259V512h182.988V198.259H246.981z M282.468,236.695h112.013v135.478H282.468V236.695z M394.602,473.563    H282.347v-30.417h112.255V473.563z M394.602,422.868H282.347V392.45h112.255V422.868z" fill="#FFDA44"/>
	</g>
</g>
<g>
	<g>
		<rect x="312.881" y="267.113" width="51.182" height="74.644" fill="#FFDA44"/>
	</g>
</g>
<g>
	<g>
		<polygon points="146.098,84.418 82.031,178.358 82.031,512 216.564,512 216.564,187.742   " fill="#FFDA44"/>
	</g>
</g>
<g>
	<g>
		<path d="M322.377,0H176.05c-16.516,0-29.952,13.435-29.952,29.951v24.05h206.23v-24.05h0C352.329,13.435,338.893,0,322.377,0z" fill="#FFDA44"/>
	</g>
</g>
<g>
</g>
<g>
</g>
<g>
</g>
<g>
</g>
<g>
</g>
<g>
</g>
<g>
</g>
<g>
</g>
<g>
</g>
<g>
</g>
<g>
</g>
<g>
</g>
<g>
</g>
<g>
</g>
<g>
</g>
</svg>
