<?xml version="1.0" encoding="iso-8859-1"?>
<!-- Generator: Adobe Illustrator 19.0.0, SVG Export Plug-In . SVG Version: 6.00 Build 0)  -->
<svg xmlns="http://www.w3.org/2000/svg" xmlns:xlink="http://www.w3.org/1999/xlink" version="1.1" id="Layer_1" x="0px" y="0px" viewBox="0 0 512 512" style="enable-background:new 0 0 512 512;" xml:space="preserve" width="512px" height="512px">
<g>
	<g>
		<path d="M181.069,362.123v0.681c0,41.317,33.614,74.931,74.931,74.931s74.931-33.614,74.931-74.931v-0.681H181.069z" fill="#FFDA44"/>
	</g>
</g>
<g>
	<g>
		<rect x="181.074" y="311.422" width="149.866" height="20.278" fill="#FFDA44"/>
	</g>
</g>
<g>
	<g>
		<path d="M450.733,241.926l-26.192-0.017c-30.3-20.057-66.969-57.611-78.172-124.881V90.367    c-0.001-49.828-40.539-90.367-90.369-90.367s-90.368,40.538-90.368,90.367v26.661c-11.205,67.27-47.873,104.824-78.172,124.881    l-26.182,0.017C27.488,241.926,0,269.415,0,303.203v80.564h30.417v-80.564c0-17.016,13.843-30.86,30.869-30.86l15.458-0.01    v239.666h358.51V272.334l15.468,0.01c17.016,0,30.86,13.843,30.86,30.86v80.564H512v-80.564    C512,269.415,484.511,241.926,450.733,241.926z M196.049,90.367c0-33.056,26.894-59.949,59.95-59.949    c33.057,0,59.95,26.893,59.95,59.949v12.772H196.049V90.367z M361.349,362.804c0,58.09-47.259,105.348-105.348,105.348    s-105.348-47.258-105.348-105.348V281.01h210.696V362.804z" fill="#FFDA44"/>
	</g>
</g>
<g>
</g>
<g>
</g>
<g>
</g>
<g>
</g>
<g>
</g>
<g>
</g>
<g>
</g>
<g>
</g>
<g>
</g>
<g>
</g>
<g>
</g>
<g>
</g>
<g>
</g>
<g>
</g>
<g>
</g>
</svg>
