<?xml version="1.0" encoding="iso-8859-1"?>
<!-- Generator: Adobe Illustrator 19.0.0, SVG Export Plug-In . SVG Version: 6.00 Build 0)  -->
<svg xmlns="http://www.w3.org/2000/svg" xmlns:xlink="http://www.w3.org/1999/xlink" version="1.1" id="Layer_1" x="0px" y="0px" viewBox="0 0 511.999 511.999" style="enable-background:new 0 0 511.999 511.999;" xml:space="preserve" width="512px" height="512px">
<g>
	<g>
		<path d="M443.437,424.943H122.252c-13.517,5.034-23.171,18.071-23.171,33.321v18.193c0,19.598,15.945,35.541,35.542,35.541    h296.441c19.598,0,35.542-15.944,35.542-35.541v-18.194C466.608,443.015,456.954,429.979,443.437,424.943z" fill="#FFDA44"/>
	</g>
</g>
<g>
	<g>
		<path d="M282.845,0c-88.552,0-160.593,72.041-160.593,160.593v28.786c-6.966-3.161-14.589-4.825-22.467-4.825    c-14.529,0-28.189,5.659-38.461,15.932c-10.274,10.273-15.932,23.932-15.932,38.461c0,14.529,5.659,28.189,15.932,38.459    l60.928,60.929v56.193h321.185V160.593h0.001C443.437,72.041,371.396,0,282.845,0z" fill="#FFDA44"/>
	</g>
</g>
<g>
</g>
<g>
</g>
<g>
</g>
<g>
</g>
<g>
</g>
<g>
</g>
<g>
</g>
<g>
</g>
<g>
</g>
<g>
</g>
<g>
</g>
<g>
</g>
<g>
</g>
<g>
</g>
<g>
</g>
</svg>
