<svg width="40" height="40" viewBox="0 0 40 40" xmlns="http://www.w3.org/2000/svg"><title>AF-AirFrance</title><g fill="none" fill-rule="evenodd"><path d="M0 20C0 8.954 8.952 0 20 0c11.046 0 20 8.952 20 20 0 11.046-8.952 20-20 20C8.954 40 0 31.048 0 20z" fill="#C8D5DB"/><path d="M20 39c10.495 0 19-8.506 19-19C39 9.505 30.494 1 20 1 9.505 1 1 9.506 1 20c0 10.495 8.506 19 19 19z" fill="#FFF"/><path d="M9.088 30.124v-3.19h.8v3.19h-.8zm18.456 0L25.62 28.23v1.894h-.675v-3.19h.574l1.897 1.865v-1.865h.676v3.19h-.55zm4.182-2.16c-.362-.207-.77-.375-1.31-.375-.644 0-1.125.387-1.125.926 0 .553.49.944 1.12.944.52 0 .934-.155 1.34-.427v.79c-.358.206-.836.36-1.373.36-1.097 0-1.96-.65-1.96-1.667 0-1 .88-1.64 1.957-1.64.51 0 .97.112 1.352.292v.796zm-17.384 2.16v-3.19h2.675v.685h-1.875v.79h1.832v.685h-1.832v1.03h-.8zm17.867 0v-3.19h2.776v.685H33.01v.55h1.945v.685H33.01v.585h1.968v.684h-2.77zm-12.414-1.196l1.106 1.196h-.854a.513.513 0 0 1-.413-.18l-.752-.85a.083.083 0 0 0-.065-.025h-.512v1.054h-.8v-3.19h1.733c.898 0 1.277.47 1.277.99 0 .605-.463.895-.72 1.004zm-.64-.527c.318 0 .47-.186.47-.396 0-.21-.135-.385-.47-.385h-.85v.78h.85zm-6.228.528l1.106 1.196h-.854a.512.512 0 0 1-.413-.18l-.752-.85c-.014-.015-.037-.025-.066-.025h-.512v1.054h-.8v-3.19h1.733c.9 0 1.28.47 1.28.99 0 .605-.465.895-.722 1.004zm-.64-.527c.318 0 .47-.186.47-.396 0-.21-.135-.385-.47-.385h-.85v.78h.85zm-4.452 1.724l-.35-.7H5.95l-.32.7H4.87l1.526-3.186h.696l1.73 3.186h-.986zM6.258 28.76h.893l-.463-.974-.43.974zm17.556 1.364l-.342-.7H21.98l-.31.7h-.743l1.488-3.186h.675l1.683 3.186h-.96zM22.28 28.76h.87l-.453-.974-.418.974z" fill="#061138"/><path d="M21.545 8.08l-8.402 12.256c-1.106 1.614-2.902 3.167-5.068 3.334v.376h9.344c2.48 0 4.29-1.63 5.515-3.423L31.562 8.08H21.545z" fill="#FC0D1B"/></g></svg>