<svg width="40" height="40" viewBox="0 0 40 40" xmlns="http://www.w3.org/2000/svg" xmlns:xlink="http://www.w3.org/1999/xlink"><title>AZ-Alitalia</title><defs><path id="a" d="M0 .9h25.717V23H0V.9z"/></defs><g fill="none" fill-rule="evenodd"><path d="M0 20C0 8.954 8.952 0 20 0c11.046 0 20 8.952 20 20 0 11.046-8.952 20-20 20C8.954 40 0 31.048 0 20z" fill="#C8D5DB"/><path d="M20 39c10.495 0 19-8.506 19-19C39 9.505 30.494 1 20 1 9.505 1 1 9.506 1 20c0 10.495 8.506 19 19 19z" fill="#FFF"/><g><g transform="translate(6 7)"><mask id="b" fill="#fff"><use xlink:href="#a"/></mask><path d="M20.004 3.818v19.17l5.712.012V.9h-8.352C15.26.9 14.47 2.156 14.47 2.156L0 22.96h6.55L20.003 3.818z" fill="#008458" mask="url(#b)"/></g><path d="M15.105 29.977h9.02V16.985l-9.092 12.992h.072z" fill="#ED1B2D"/></g></g></svg>