<svg width="40" height="40" viewBox="0 0 40 40" xmlns="http://www.w3.org/2000/svg" xmlns:xlink="http://www.w3.org/1999/xlink"><title>NH-AllNipponAirways</title><defs><path id="a" d="M0 .138h33.95V9H0V.138z"/></defs><g fill="none" fill-rule="evenodd"><path d="M0 20C0 8.954 8.952 0 20 0c11.046 0 20 8.952 20 20 0 11.046-8.952 20-20 20C8.954 40 0 31.048 0 20z" fill="#C8D5DB"/><path d="M20 39c10.495 0 19-8.506 19-19C39 9.505 30.494 1 20 1 9.505 1 1 9.506 1 20c0 10.495 8.506 19 19 19z" fill="#FFF"/><g><path d="M11.952 16.302H14.5l1.66 5.966c.065.19.222.136.248 0l1.06-5.966h1.122L17.27 24h-2.6l-1.62-5.912c-.053-.163-.21-.203-.262.013l-1.02 5.9h-1.175l1.36-7.698zM7.326 16.302H9.81L10.304 24H8.45l-.04-.866a.318.318 0 0 0-.327-.325h-2.86l.626-1.096h1.96c.22 0 .483.027.47-.285l-.21-3.45c0-.23-.196-.34-.313-.122L4.267 24H3l4.326-7.698zM21.452 16.302h2.496l.59 7.698h-1.87l-.04-.866c0-.19-.13-.325-.313-.325h-2.627l.614-1.096h1.738c.223 0 .484.027.458-.285l-.3-3.45c0-.23-.197-.34-.314-.122L18.826 24h-1.268l3.894-7.698z" fill="#0E4A8F"/><g transform="translate(3 15)"><mask id="b" fill="#fff"><use xlink:href="#a"/></mask><path d="M29.038 9L33.95.138h-6.964L22.072 9h6.966z" fill="#00B1CE" mask="url(#b)"/></g><path d="M30.666 24l4.913-8.862h-5.594L25.072 24h5.594z" fill="#0E4A8F"/></g></g></svg>